# xmcd
#
# Track frame offsets:
#	150
#	21969
#	40975
#	64675
#	81862
#	104061
#	125907
#	146031
#	165010
#	187028
#
# Disc length: 2743 seconds
#
# Revision: 0
# Processed by: cddbd v1.5.2PL0 Copyright (c) Steve Scherf et al.
# Submitted via: EasyCDDAExtractor 2010.6.0.0
#
DISCID=8d0ab50a
DTITLE=洪百慧 - 寄袂到的情批
DYEAR=2010
DGENRE=台語歌曲
TTITLE0=阿爸\n
TTITLE1=愛情一場夢 (洪百慧&莊振凱]\n
TTITLE2=講什麼昨暝歹勢\n
TTITLE3=愛情的主人\n
TTITLE4=寄袂到的情批\n
TTITLE5=愛情的探戈 (洪百慧&莊振凱]\n
TTITLE6=吻\n
TTITLE7=情花\n
TTITLE8=今生為你活\n
TTITLE9=愛情研究所
EXTD=
EXTT0=
EXTT1=
EXTT2=
EXTT3=
EXTT4=
EXTT5=
EXTT6=
EXTT7=
EXTT8=
EXTT9=
PLAYORDER=
